<?xml version="1.0" encoding="UTF-8" standalone="no"?>
<!DOCTYPE svg PUBLIC "-//W3C//DTD SVG 1.1//EN"
 "http://www.w3.org/Graphics/SVG/1.1/DTD/svg11.dtd">
<!-- Generated by graphviz version 2.40.1 (20161225.0304)
 -->
<!-- Title: G Pages: 1 -->
<svg width="627pt" height="404pt"
 viewBox="0.00 0.00 626.64 404.00" xmlns="http://www.w3.org/2000/svg" xmlns:xlink="http://www.w3.org/1999/xlink">
<g id="graph0" class="graph" transform="scale(1 1) rotate(0) translate(4 400)">
<title>G</title>
<polygon fill="#ffffff" stroke="transparent" points="-4,4 -4,-400 622.6373,-400 622.6373,4 -4,4"/>
<!-- Topological Manifold -->
<g id="node1" class="node">
<title>Topological Manifold</title>
<ellipse fill="none" stroke="#000000" cx="243.2439" cy="-306" rx="89.0842" ry="18"/>
<text text-anchor="middle" x="243.2439" y="-302.3" font-family="Times,serif" font-size="14.00" fill="#000000">Topological Manifold</text>
</g>
<!-- Hausdorff -->
<g id="node2" class="node">
<title>Hausdorff</title>
<ellipse fill="none" stroke="#000000" cx="103.2439" cy="-234" rx="46.2923" ry="18"/>
<text text-anchor="middle" x="103.2439" y="-230.3" font-family="Times,serif" font-size="14.00" fill="#000000">Hausdorff</text>
</g>
<!-- Topological Manifold&#45;&#45;Hausdorff -->
<g id="edge1" class="edge">
<title>Topological Manifold&#45;&#45;Hausdorff</title>
<path fill="none" stroke="#000000" d="M210.4202,-289.1192C186.3358,-276.733 153.9801,-260.0929 131.1402,-248.3467"/>
</g>
<!-- Locally Euclidean -->
<g id="node3" class="node">
<title>Locally Euclidean</title>
<ellipse fill="none" stroke="#000000" cx="243.2439" cy="-234" rx="75.2868" ry="18"/>
<text text-anchor="middle" x="243.2439" y="-230.3" font-family="Times,serif" font-size="14.00" fill="#000000">Locally Euclidean</text>
</g>
<!-- Topological Manifold&#45;&#45;Locally Euclidean -->
<g id="edge2" class="edge">
<title>Topological Manifold&#45;&#45;Locally Euclidean</title>
<path fill="none" stroke="#000000" d="M243.2439,-287.8314C243.2439,-277 243.2439,-263.2876 243.2439,-252.4133"/>
</g>
<!-- Second Countable -->
<g id="node4" class="node">
<title>Second Countable</title>
<ellipse fill="none" stroke="#000000" cx="543.2439" cy="-234" rx="75.2868" ry="18"/>
<text text-anchor="middle" x="543.2439" y="-230.3" font-family="Times,serif" font-size="14.00" fill="#000000">Second Countable</text>
</g>
<!-- Topological Manifold&#45;&#45;Second Countable -->
<g id="edge3" class="edge">
<title>Topological Manifold&#45;&#45;Second Countable</title>
<path fill="none" stroke="#000000" d="M300.732,-292.2029C355.3459,-279.0955 436.8033,-259.5457 489.9779,-246.7839"/>
</g>
<!-- Unique Convergence -->
<g id="node9" class="node">
<title>Unique Convergence</title>
<ellipse fill="none" stroke="#000000" cx="107.2439" cy="-162" rx="85.2851" ry="18"/>
<text text-anchor="middle" x="107.2439" y="-158.3" font-family="Times,serif" font-size="14.00" fill="#000000">Unique Convergence</text>
</g>
<!-- Hausdorff&#45;&#45;Unique Convergence -->
<g id="edge9" class="edge">
<title>Hausdorff&#45;&#45;Unique Convergence</title>
<path fill="none" stroke="#000000" d="M104.2533,-215.8314C104.8551,-205 105.6169,-191.2876 106.221,-180.4133"/>
</g>
<!-- Dieudonne&#39;s Theorem -->
<g id="node13" class="node">
<title>Dieudonne&#39;s Theorem</title>
<ellipse fill="none" stroke="#000000" cx="299.2439" cy="-162" rx="89.0842" ry="18"/>
<text text-anchor="middle" x="299.2439" y="-158.3" font-family="Times,serif" font-size="14.00" fill="#000000">Dieudonne&#39;s Theorem</text>
</g>
<!-- Hausdorff&#45;&#45;Dieudonne&#39;s Theorem -->
<g id="edge14" class="edge">
<title>Hausdorff&#45;&#45;Dieudonne&#39;s Theorem</title>
<path fill="none" stroke="#000000" d="M136.9375,-221.6228C169.8825,-209.5205 220.187,-191.0413 256.0537,-177.8658"/>
</g>
<!-- Partition of Unity -->
<g id="node11" class="node">
<title>Partition of Unity</title>
<ellipse fill="none" stroke="#000000" cx="424.2439" cy="-18" rx="73.387" ry="18"/>
<text text-anchor="middle" x="424.2439" y="-14.3" font-family="Times,serif" font-size="14.00" fill="#000000">Partition of Unity</text>
</g>
<!-- Second Countable&#45;&#45;Partition of Unity -->
<g id="edge12" class="edge">
<title>Second Countable&#45;&#45;Partition of Unity</title>
<path fill="none" stroke="#000000" d="M543.0335,-215.7493C541.8173,-183.8119 535.4149,-116.919 504.2439,-72 492.971,-55.7551 475.0932,-43.013 459.0946,-33.9959"/>
</g>
<!-- Topology -->
<g id="node5" class="node">
<title>Topology</title>
<ellipse fill="none" stroke="#000000" cx="326.2439" cy="-378" rx="44.6926" ry="18"/>
<text text-anchor="middle" x="326.2439" y="-374.3" font-family="Times,serif" font-size="14.00" fill="#000000">Topology</text>
</g>
<!-- Topology&#45;&#45;Topological Manifold -->
<g id="edge4" class="edge">
<title>Topology&#45;&#45;Topological Manifold</title>
<path fill="none" stroke="#000000" d="M307.41,-361.6621C294.3048,-350.2938 276.8496,-335.1519 263.4535,-323.5312"/>
</g>
<!-- Basis -->
<g id="node6" class="node">
<title>Basis</title>
<ellipse fill="none" stroke="#000000" cx="530.2439" cy="-306" rx="29.795" ry="18"/>
<text text-anchor="middle" x="530.2439" y="-302.3" font-family="Times,serif" font-size="14.00" fill="#000000">Basis</text>
</g>
<!-- Topology&#45;&#45;Basis -->
<g id="edge5" class="edge">
<title>Topology&#45;&#45;Basis</title>
<path fill="none" stroke="#000000" d="M359.9304,-366.1107C400.4443,-351.8116 467.5695,-328.1204 504.2843,-315.1622"/>
</g>
<!-- Locally Finite -->
<g id="node7" class="node">
<title>Locally Finite</title>
<ellipse fill="none" stroke="#000000" cx="410.2439" cy="-306" rx="60.3893" ry="18"/>
<text text-anchor="middle" x="410.2439" y="-302.3" font-family="Times,serif" font-size="14.00" fill="#000000">Locally Finite</text>
</g>
<!-- Topology&#45;&#45;Locally Finite -->
<g id="edge6" class="edge">
<title>Topology&#45;&#45;Locally Finite</title>
<path fill="none" stroke="#000000" d="M345.3048,-361.6621C358.7615,-350.1278 376.7501,-334.709 390.382,-323.0245"/>
</g>
<!-- Separate Axiom -->
<g id="node14" class="node">
<title>Separate Axiom</title>
<ellipse fill="none" stroke="#000000" cx="68.2439" cy="-306" rx="68.4888" ry="18"/>
<text text-anchor="middle" x="68.2439" y="-302.3" font-family="Times,serif" font-size="14.00" fill="#000000">Separate Axiom</text>
</g>
<!-- Topology&#45;&#45;Separate Axiom -->
<g id="edge17" class="edge">
<title>Topology&#45;&#45;Separate Axiom</title>
<path fill="none" stroke="#000000" d="M289.2788,-367.6842C243.4378,-354.8913 165.2429,-333.0695 115.2019,-319.1046"/>
</g>
<!-- Basis&#45;&#45;Second Countable -->
<g id="edge8" class="edge">
<title>Basis&#45;&#45;Second Countable</title>
<path fill="none" stroke="#000000" d="M533.5244,-287.8314C535.4801,-277 537.9559,-263.2876 539.9193,-252.4133"/>
</g>
<!-- Paracompact -->
<g id="node8" class="node">
<title>Paracompact</title>
<ellipse fill="none" stroke="#000000" cx="393.2439" cy="-234" rx="56.59" ry="18"/>
<text text-anchor="middle" x="393.2439" y="-230.3" font-family="Times,serif" font-size="14.00" fill="#000000">Paracompact</text>
</g>
<!-- Locally Finite&#45;&#45;Paracompact -->
<g id="edge7" class="edge">
<title>Locally Finite&#45;&#45;Paracompact</title>
<path fill="none" stroke="#000000" d="M405.9541,-287.8314C403.3967,-277 400.1591,-263.2876 397.5915,-252.4133"/>
</g>
<!-- Urysohn Lemma -->
<g id="node10" class="node">
<title>Urysohn Lemma</title>
<ellipse fill="none" stroke="#000000" cx="424.2439" cy="-90" rx="71.4873" ry="18"/>
<text text-anchor="middle" x="424.2439" y="-86.3" font-family="Times,serif" font-size="14.00" fill="#000000">Urysohn Lemma</text>
</g>
<!-- Paracompact&#45;&#45;Urysohn Lemma -->
<g id="edge10" class="edge">
<title>Paracompact&#45;&#45;Urysohn Lemma</title>
<path fill="none" stroke="#000000" d="M397.1701,-215.7623C403.1331,-188.0633 414.4057,-135.7005 420.3497,-108.0896"/>
</g>
<!-- Paracompact&#45;&#45;Dieudonne&#39;s Theorem -->
<g id="edge15" class="edge">
<title>Paracompact&#45;&#45;Dieudonne&#39;s Theorem</title>
<path fill="none" stroke="#000000" d="M371.4422,-217.3008C356.6901,-206.0013 337.2359,-191.1002 322.2389,-179.6132"/>
</g>
<!-- Urysohn Lemma&#45;&#45;Partition of Unity -->
<g id="edge11" class="edge">
<title>Urysohn Lemma&#45;&#45;Partition of Unity</title>
<path fill="none" stroke="#000000" d="M424.2439,-71.8314C424.2439,-61 424.2439,-47.2876 424.2439,-36.4133"/>
</g>
<!-- Normal -->
<g id="node12" class="node">
<title>Normal</title>
<ellipse fill="none" stroke="#000000" cx="296.2439" cy="-90" rx="38.1938" ry="18"/>
<text text-anchor="middle" x="296.2439" y="-86.3" font-family="Times,serif" font-size="14.00" fill="#000000">Normal</text>
</g>
<!-- Normal&#45;&#45;Partition of Unity -->
<g id="edge13" class="edge">
<title>Normal&#45;&#45;Partition of Unity</title>
<path fill="none" stroke="#000000" d="M320.9236,-76.1177C341.9913,-64.2671 372.3401,-47.1959 394.6973,-34.62"/>
</g>
<!-- Dieudonne&#39;s Theorem&#45;&#45;Normal -->
<g id="edge16" class="edge">
<title>Dieudonne&#39;s Theorem&#45;&#45;Normal</title>
<path fill="none" stroke="#000000" d="M298.4869,-143.8314C298.0356,-133 297.4643,-119.2876 297.0112,-108.4133"/>
</g>
<!-- Separate Axiom&#45;&#45;Hausdorff -->
<g id="edge18" class="edge">
<title>Separate Axiom&#45;&#45;Hausdorff</title>
<path fill="none" stroke="#000000" d="M77.0759,-287.8314C82.4222,-276.8334 89.2124,-262.865 94.536,-251.9134"/>
</g>
<!-- Separate Axiom&#45;&#45;Normal -->
<g id="edge19" class="edge">
<title>Separate Axiom&#45;&#45;Normal</title>
<path fill="none" stroke="#000000" d="M52.4137,-288.4261C25.4975,-256.3759 -22.9162,-187.7123 13.2439,-144 43.8506,-107.001 187.7348,-95.1255 257.7639,-91.5002"/>
</g>
</g>
</svg>
