<?xml version="1.0" encoding="UTF-8" standalone="no"?>
<!DOCTYPE svg PUBLIC "-//W3C//DTD SVG 1.1//EN"
 "http://www.w3.org/Graphics/SVG/1.1/DTD/svg11.dtd">
<!-- Generated by graphviz version 2.40.1 (20161225.0304)
 -->
<!-- Title: G Pages: 1 -->
<svg width="767pt" height="476pt"
 viewBox="0.00 0.00 767.44 476.00" xmlns="http://www.w3.org/2000/svg" xmlns:xlink="http://www.w3.org/1999/xlink">
<g id="graph0" class="graph" transform="scale(1 1) rotate(0) translate(4 472)">
<title>G</title>
<polygon fill="#ffffff" stroke="transparent" points="-4,4 -4,-472 763.4366,-472 763.4366,4 -4,4"/>
<!-- Topological Manifold -->
<g id="node1" class="node">
<title>Topological Manifold</title>
<ellipse fill="none" stroke="#000000" cx="263.3933" cy="-378" rx="89.0842" ry="18"/>
<text text-anchor="middle" x="263.3933" y="-374.3" font-family="Times,serif" font-size="14.00" fill="#000000">Topological Manifold</text>
</g>
<!-- Hausdorff -->
<g id="node2" class="node">
<title>Hausdorff</title>
<ellipse fill="none" stroke="#000000" cx="384.3933" cy="-306" rx="46.2923" ry="18"/>
<text text-anchor="middle" x="384.3933" y="-302.3" font-family="Times,serif" font-size="14.00" fill="#000000">Hausdorff</text>
</g>
<!-- Topological Manifold&#45;&gt;Hausdorff -->
<g id="edge1" class="edge">
<title>Topological Manifold&#45;&gt;Hausdorff</title>
<path fill="none" stroke="#000000" d="M292.0686,-360.937C309.4854,-350.5733 331.8213,-337.2825 350.161,-326.3697"/>
<polygon fill="#000000" stroke="#000000" points="352.0001,-329.3481 358.804,-321.2267 348.4205,-323.3326 352.0001,-329.3481"/>
</g>
<!-- Locally Euclidean -->
<g id="node3" class="node">
<title>Locally Euclidean</title>
<ellipse fill="none" stroke="#000000" cx="244.3933" cy="-306" rx="75.2868" ry="18"/>
<text text-anchor="middle" x="244.3933" y="-302.3" font-family="Times,serif" font-size="14.00" fill="#000000">Locally Euclidean</text>
</g>
<!-- Topological Manifold&#45;&gt;Locally Euclidean -->
<g id="edge2" class="edge">
<title>Topological Manifold&#45;&gt;Locally Euclidean</title>
<path fill="none" stroke="#000000" d="M258.5988,-359.8314C256.5444,-352.0463 254.0973,-342.7729 251.8178,-334.1347"/>
<polygon fill="#000000" stroke="#000000" points="255.1881,-333.1892 249.2524,-324.4133 248.4198,-334.9753 255.1881,-333.1892"/>
</g>
<!-- Second Countable -->
<g id="node4" class="node">
<title>Second Countable</title>
<ellipse fill="none" stroke="#000000" cx="75.3933" cy="-306" rx="75.2868" ry="18"/>
<text text-anchor="middle" x="75.3933" y="-302.3" font-family="Times,serif" font-size="14.00" fill="#000000">Second Countable</text>
</g>
<!-- Topological Manifold&#45;&gt;Second Countable -->
<g id="edge3" class="edge">
<title>Topological Manifold&#45;&gt;Second Countable</title>
<path fill="none" stroke="#000000" d="M221.67,-362.0209C193.0696,-351.0675 155.0021,-336.4885 124.871,-324.9489"/>
<polygon fill="#000000" stroke="#000000" points="125.9795,-321.6256 115.3891,-321.3175 123.4759,-328.1626 125.9795,-321.6256"/>
</g>
<!-- Dieudonne&#39;s Theorem -->
<g id="node9" class="node">
<title>Dieudonne&#39;s Theorem</title>
<ellipse fill="none" stroke="#000000" cx="575.3933" cy="-234" rx="89.0842" ry="18"/>
<text text-anchor="middle" x="575.3933" y="-230.3" font-family="Times,serif" font-size="14.00" fill="#000000">Dieudonne&#39;s Theorem</text>
</g>
<!-- Hausdorff&#45;&gt;Dieudonne&#39;s Theorem -->
<g id="edge7" class="edge">
<title>Hausdorff&#45;&gt;Dieudonne&#39;s Theorem</title>
<path fill="none" stroke="#ff0000" d="M417.663,-293.4586C446.8463,-282.4575 489.762,-266.2798 523.4635,-253.5756"/>
<polygon fill="#ff0000" stroke="#ff0000" points="525.0297,-256.7257 533.1523,-249.9233 522.5605,-250.1757 525.0297,-256.7257"/>
</g>
<!-- Michael&#39;s Theorem -->
<g id="node13" class="node">
<title>Michael&#39;s Theorem</title>
<ellipse fill="none" stroke="#000000" cx="461.3933" cy="-90" rx="79.0865" ry="18"/>
<text text-anchor="middle" x="461.3933" y="-86.3" font-family="Times,serif" font-size="14.00" fill="#000000">Michael&#39;s Theorem</text>
</g>
<!-- Second Countable&#45;&gt;Michael&#39;s Theorem -->
<g id="edge13" class="edge">
<title>Second Countable&#45;&gt;Michael&#39;s Theorem</title>
<path fill="none" stroke="#ff0000" d="M105.0411,-289.4095C174,-250.8211 345.1572,-155.0441 422.4334,-111.8014"/>
<polygon fill="#ff0000" stroke="#ff0000" points="424.3613,-114.7333 431.3788,-106.7957 420.943,-108.6247 424.3613,-114.7333"/>
</g>
<!-- Topology -->
<g id="node5" class="node">
<title>Topology</title>
<ellipse fill="none" stroke="#000000" cx="350.3933" cy="-450" rx="44.6926" ry="18"/>
<text text-anchor="middle" x="350.3933" y="-446.3" font-family="Times,serif" font-size="14.00" fill="#000000">Topology</text>
</g>
<!-- Topology&#45;&gt;Topological Manifold -->
<g id="edge4" class="edge">
<title>Topology&#45;&gt;Topological Manifold</title>
<path fill="none" stroke="#000000" d="M330.6517,-433.6621C319.3832,-424.3365 305.0466,-412.4717 292.5072,-402.0942"/>
<polygon fill="#000000" stroke="#000000" points="294.5123,-399.2105 284.5768,-395.5312 290.0493,-404.6033 294.5123,-399.2105"/>
</g>
<!-- Separate Axiom -->
<g id="node6" class="node">
<title>Separate Axiom</title>
<ellipse fill="none" stroke="#000000" cx="448.3933" cy="-378" rx="68.4888" ry="18"/>
<text text-anchor="middle" x="448.3933" y="-374.3" font-family="Times,serif" font-size="14.00" fill="#000000">Separate Axiom</text>
</g>
<!-- Topology&#45;&gt;Separate Axiom -->
<g id="edge5" class="edge">
<title>Topology&#45;&gt;Separate Axiom</title>
<path fill="none" stroke="#000000" d="M372.1427,-434.0209C385.2472,-424.3931 402.1644,-411.9641 416.7336,-401.2602"/>
<polygon fill="#000000" stroke="#000000" points="419.0073,-403.9329 424.9938,-395.1915 414.8627,-398.2917 419.0073,-403.9329"/>
</g>
<!-- Separate Axiom&#45;&gt;Hausdorff -->
<g id="edge9" class="edge">
<title>Separate Axiom&#45;&gt;Hausdorff</title>
<path fill="none" stroke="#000000" d="M432.5731,-360.2022C424.7072,-351.3531 415.0713,-340.5127 406.4895,-330.8583"/>
<polygon fill="#000000" stroke="#000000" points="408.8505,-328.2461 399.5908,-323.0972 403.6186,-332.8966 408.8505,-328.2461"/>
</g>
<!-- Regular -->
<g id="node11" class="node">
<title>Regular</title>
<ellipse fill="none" stroke="#000000" cx="461.3933" cy="-162" rx="38.1938" ry="18"/>
<text text-anchor="middle" x="461.3933" y="-158.3" font-family="Times,serif" font-size="14.00" fill="#000000">Regular</text>
</g>
<!-- Separate Axiom&#45;&gt;Regular -->
<g id="edge10" class="edge">
<title>Separate Axiom&#45;&gt;Regular</title>
<path fill="none" stroke="#000000" d="M449.4793,-359.9555C451.74,-322.3938 456.9664,-235.5541 459.6834,-190.4103"/>
<polygon fill="#000000" stroke="#000000" points="463.1941,-190.3373 460.3012,-180.1451 456.2067,-189.9167 463.1941,-190.3373"/>
</g>
<!-- Normal -->
<g id="node12" class="node">
<title>Normal</title>
<ellipse fill="none" stroke="#000000" cx="683.3933" cy="-162" rx="38.1938" ry="18"/>
<text text-anchor="middle" x="683.3933" y="-158.3" font-family="Times,serif" font-size="14.00" fill="#000000">Normal</text>
</g>
<!-- Separate Axiom&#45;&gt;Normal -->
<g id="edge11" class="edge">
<title>Separate Axiom&#45;&gt;Normal</title>
<path fill="none" stroke="#000000" d="M497.0396,-365.1974C549.9108,-348.5315 632.3245,-313.9408 673.3933,-252 685.359,-233.953 687.3438,-209.2731 686.6238,-190.3217"/>
<polygon fill="#000000" stroke="#000000" points="690.1067,-189.9432 685.9673,-180.1905 683.1213,-190.3959 690.1067,-189.9432"/>
</g>
<!-- Urysohn&#39;s Lemma -->
<g id="node7" class="node">
<title>Urysohn&#39;s Lemma</title>
<ellipse fill="none" stroke="#000000" cx="683.3933" cy="-90" rx="76.0865" ry="18"/>
<text text-anchor="middle" x="683.3933" y="-86.3" font-family="Times,serif" font-size="14.00" fill="#000000">Urysohn&#39;s Lemma</text>
</g>
<!-- Partition of Unity -->
<g id="node8" class="node">
<title>Partition of Unity</title>
<ellipse fill="none" stroke="#000000" cx="683.3933" cy="-18" rx="73.387" ry="18"/>
<text text-anchor="middle" x="683.3933" y="-14.3" font-family="Times,serif" font-size="14.00" fill="#000000">Partition of Unity</text>
</g>
<!-- Urysohn&#39;s Lemma&#45;&gt;Partition of Unity -->
<g id="edge6" class="edge">
<title>Urysohn&#39;s Lemma&#45;&gt;Partition of Unity</title>
<path fill="none" stroke="#0000ff" d="M683.3933,-71.8314C683.3933,-64.131 683.3933,-54.9743 683.3933,-46.4166"/>
<polygon fill="#0000ff" stroke="#0000ff" points="686.8934,-46.4132 683.3933,-36.4133 679.8934,-46.4133 686.8934,-46.4132"/>
</g>
<!-- Dieudonne&#39;s Theorem&#45;&gt;Regular -->
<g id="edge16" class="edge">
<title>Dieudonne&#39;s Theorem&#45;&gt;Regular</title>
<path fill="none" stroke="#0000ff" d="M548.0875,-216.7542C531.5961,-206.3386 510.5037,-193.0171 493.2532,-182.122"/>
<polygon fill="#0000ff" stroke="#0000ff" points="494.9511,-179.0548 484.6272,-176.674 491.2131,-184.9732 494.9511,-179.0548"/>
</g>
<!-- Dieudonne&#39;s Theorem&#45;&gt;Normal -->
<g id="edge17" class="edge">
<title>Dieudonne&#39;s Theorem&#45;&gt;Normal</title>
<path fill="none" stroke="#0000ff" d="M601.262,-216.7542C616.6368,-206.5044 636.2327,-193.4404 652.4273,-182.644"/>
<polygon fill="#0000ff" stroke="#0000ff" points="654.6468,-185.3708 661.0259,-176.9116 650.7639,-179.5465 654.6468,-185.3708"/>
</g>
<!-- Paracompact -->
<g id="node10" class="node">
<title>Paracompact</title>
<ellipse fill="none" stroke="#000000" cx="504.3933" cy="-18" rx="56.59" ry="18"/>
<text text-anchor="middle" x="504.3933" y="-14.3" font-family="Times,serif" font-size="14.00" fill="#000000">Paracompact</text>
</g>
<!-- Paracompact&#45;&gt;Dieudonne&#39;s Theorem -->
<g id="edge8" class="edge">
<title>Paracompact&#45;&gt;Dieudonne&#39;s Theorem</title>
<path fill="none" stroke="#ff0000" d="M522.9498,-35.2789C532.3735,-45.1261 543.1272,-58.2259 549.3933,-72 569.2631,-115.6776 574.2411,-172.0201 575.3222,-205.4467"/>
<polygon fill="#ff0000" stroke="#ff0000" points="571.8321,-205.9337 575.5553,-215.8528 578.8303,-205.7769 571.8321,-205.9337"/>
</g>
<!-- Regular&#45;&gt;Michael&#39;s Theorem -->
<g id="edge14" class="edge">
<title>Regular&#45;&gt;Michael&#39;s Theorem</title>
<path fill="none" stroke="#ff0000" d="M461.3933,-143.8314C461.3933,-136.131 461.3933,-126.9743 461.3933,-118.4166"/>
<polygon fill="#ff0000" stroke="#ff0000" points="464.8934,-118.4132 461.3933,-108.4133 457.8934,-118.4133 464.8934,-118.4132"/>
</g>
<!-- Normal&#45;&gt;Urysohn&#39;s Lemma -->
<g id="edge12" class="edge">
<title>Normal&#45;&gt;Urysohn&#39;s Lemma</title>
<path fill="none" stroke="#0000ff" d="M683.3933,-143.8314C683.3933,-136.131 683.3933,-126.9743 683.3933,-118.4166"/>
<polygon fill="#0000ff" stroke="#0000ff" points="686.8934,-118.4132 683.3933,-108.4133 679.8934,-118.4133 686.8934,-118.4132"/>
</g>
<!-- Michael&#39;s Theorem&#45;&gt;Paracompact -->
<g id="edge15" class="edge">
<title>Michael&#39;s Theorem&#45;&gt;Paracompact</title>
<path fill="none" stroke="#0000ff" d="M472.244,-71.8314C477.1702,-63.5829 483.0943,-53.6635 488.5077,-44.5992"/>
<polygon fill="#0000ff" stroke="#0000ff" points="491.5725,-46.2935 493.695,-35.9134 485.5627,-42.7042 491.5725,-46.2935"/>
</g>
</g>
</svg>
