<?xml version="1.0" encoding="UTF-8" standalone="no"?>
<!DOCTYPE svg PUBLIC "-//W3C//DTD SVG 1.1//EN"
 "http://www.w3.org/Graphics/SVG/1.1/DTD/svg11.dtd">
<!-- Generated by graphviz version 2.40.1 (20161225.0304)
 -->
<!-- Title: G Pages: 1 -->
<svg width="640pt" height="332pt"
 viewBox="0.00 0.00 639.69 332.00" xmlns="http://www.w3.org/2000/svg" xmlns:xlink="http://www.w3.org/1999/xlink">
<g id="graph0" class="graph" transform="scale(1 1) rotate(0) translate(4 328)">
<title>G</title>
<polygon fill="#ffffff" stroke="transparent" points="-4,4 -4,-328 635.6886,-328 635.6886,4 -4,4"/>
<!-- Topological Manifold -->
<g id="node1" class="node">
<title>Topological Manifold</title>
<ellipse fill="none" stroke="#000000" cx="215.1949" cy="-234" rx="89.0842" ry="18"/>
<text text-anchor="middle" x="215.1949" y="-230.3" font-family="Times,serif" font-size="14.00" fill="#000000">Topological Manifold</text>
</g>
<!-- Hausdorff -->
<g id="node2" class="node">
<title>Hausdorff</title>
<ellipse fill="none" stroke="#000000" cx="57.1949" cy="-162" rx="46.2923" ry="18"/>
<text text-anchor="middle" x="57.1949" y="-158.3" font-family="Times,serif" font-size="14.00" fill="#000000">Hausdorff</text>
</g>
<!-- Topological Manifold&#45;&#45;Hausdorff -->
<g id="edge1" class="edge">
<title>Topological Manifold&#45;&#45;Hausdorff</title>
<path fill="none" stroke="#000000" d="M178.9465,-217.4817C151.2499,-204.8605 113.5208,-187.6675 87.437,-175.7812"/>
</g>
<!-- Locally Euclidean -->
<g id="node3" class="node">
<title>Locally Euclidean</title>
<ellipse fill="none" stroke="#000000" cx="197.1949" cy="-162" rx="75.2868" ry="18"/>
<text text-anchor="middle" x="197.1949" y="-158.3" font-family="Times,serif" font-size="14.00" fill="#000000">Locally Euclidean</text>
</g>
<!-- Topological Manifold&#45;&#45;Locally Euclidean -->
<g id="edge2" class="edge">
<title>Topological Manifold&#45;&#45;Locally Euclidean</title>
<path fill="none" stroke="#000000" d="M210.6528,-215.8314C207.9449,-205 204.5168,-191.2876 201.7982,-180.4133"/>
</g>
<!-- Second Countable -->
<g id="node4" class="node">
<title>Second Countable</title>
<ellipse fill="none" stroke="#000000" cx="366.1949" cy="-162" rx="75.2868" ry="18"/>
<text text-anchor="middle" x="366.1949" y="-158.3" font-family="Times,serif" font-size="14.00" fill="#000000">Second Countable</text>
</g>
<!-- Topological Manifold&#45;&#45;Second Countable -->
<g id="edge3" class="edge">
<title>Topological Manifold&#45;&#45;Second Countable</title>
<path fill="none" stroke="#000000" d="M250.2169,-217.3008C274.9598,-205.5028 307.9375,-189.7784 332.4016,-178.1134"/>
</g>
<!-- Convergence -->
<g id="node9" class="node">
<title>Convergence</title>
<ellipse fill="none" stroke="#000000" cx="57.1949" cy="-90" rx="57.3905" ry="18"/>
<text text-anchor="middle" x="57.1949" y="-86.3" font-family="Times,serif" font-size="14.00" fill="#000000">Convergence</text>
</g>
<!-- Hausdorff&#45;&#45;Convergence -->
<g id="edge10" class="edge">
<title>Hausdorff&#45;&#45;Convergence</title>
<path fill="none" stroke="#000000" d="M57.1949,-143.8314C57.1949,-133 57.1949,-119.2876 57.1949,-108.4133"/>
</g>
<!-- Normal -->
<g id="node12" class="node">
<title>Normal</title>
<ellipse fill="none" stroke="#000000" cx="432.1949" cy="-90" rx="38.1938" ry="18"/>
<text text-anchor="middle" x="432.1949" y="-86.3" font-family="Times,serif" font-size="14.00" fill="#000000">Normal</text>
</g>
<!-- Hausdorff&#45;&#45;Normal -->
<g id="edge15" class="edge">
<title>Hausdorff&#45;&#45;Normal</title>
<path fill="none" stroke="#000000" d="M91.9255,-149.9853C98.9164,-147.8084 106.2502,-145.6947 113.1949,-144 213.8741,-119.4321 335.1264,-102.2282 395.0036,-94.5347"/>
</g>
<!-- Partition of Unity -->
<g id="node11" class="node">
<title>Partition of Unity</title>
<ellipse fill="none" stroke="#000000" cx="432.1949" cy="-18" rx="73.387" ry="18"/>
<text text-anchor="middle" x="432.1949" y="-14.3" font-family="Times,serif" font-size="14.00" fill="#000000">Partition of Unity</text>
</g>
<!-- Second Countable&#45;&#45;Partition of Unity -->
<g id="edge13" class="edge">
<title>Second Countable&#45;&#45;Partition of Unity</title>
<path fill="none" stroke="#000000" d="M367.3333,-143.8744C369.1157,-125.0464 373.6605,-95.1567 385.1949,-72 391.9554,-58.4275 402.9466,-45.5273 412.6006,-35.741"/>
</g>
<!-- Topology -->
<g id="node5" class="node">
<title>Topology</title>
<ellipse fill="none" stroke="#000000" cx="366.1949" cy="-306" rx="44.6926" ry="18"/>
<text text-anchor="middle" x="366.1949" y="-302.3" font-family="Times,serif" font-size="14.00" fill="#000000">Topology</text>
</g>
<!-- Topology&#45;&#45;Topological Manifold -->
<g id="edge4" class="edge">
<title>Topology&#45;&#45;Topological Manifold</title>
<path fill="none" stroke="#000000" d="M337.0806,-292.1177C312.2274,-280.2671 276.4253,-263.1959 250.0507,-250.62"/>
</g>
<!-- Topology&#45;&#45;Hausdorff -->
<g id="edge5" class="edge">
<title>Topology&#45;&#45;Hausdorff</title>
<path fill="none" stroke="#000000" d="M323.12,-300.6159C261.0516,-292.2033 150.2758,-274.5434 117.1949,-252 90.9692,-234.1281 73.2212,-200.6301 64.1871,-179.9261"/>
</g>
<!-- Basis -->
<g id="node6" class="node">
<title>Basis</title>
<ellipse fill="none" stroke="#000000" cx="366.1949" cy="-234" rx="29.795" ry="18"/>
<text text-anchor="middle" x="366.1949" y="-230.3" font-family="Times,serif" font-size="14.00" fill="#000000">Basis</text>
</g>
<!-- Topology&#45;&#45;Basis -->
<g id="edge6" class="edge">
<title>Topology&#45;&#45;Basis</title>
<path fill="none" stroke="#000000" d="M366.1949,-287.8314C366.1949,-277 366.1949,-263.2876 366.1949,-252.4133"/>
</g>
<!-- Locally Finite -->
<g id="node7" class="node">
<title>Locally Finite</title>
<ellipse fill="none" stroke="#000000" cx="557.1949" cy="-234" rx="60.3893" ry="18"/>
<text text-anchor="middle" x="557.1949" y="-230.3" font-family="Times,serif" font-size="14.00" fill="#000000">Locally Finite</text>
</g>
<!-- Topology&#45;&#45;Locally Finite -->
<g id="edge7" class="edge">
<title>Topology&#45;&#45;Locally Finite</title>
<path fill="none" stroke="#000000" d="M399.029,-293.6228C432.5201,-280.9978 484.4207,-261.4332 519.5539,-248.1893"/>
</g>
<!-- Topology&#45;&#45;Normal -->
<g id="edge14" class="edge">
<title>Topology&#45;&#45;Normal</title>
<path fill="none" stroke="#000000" d="M382.6472,-289.0337C403.31,-266.3789 437.5837,-223.9727 450.1949,-180 457.2674,-155.3397 448.3246,-126.1004 440.7134,-107.7953"/>
</g>
<!-- Basis&#45;&#45;Second Countable -->
<g id="edge9" class="edge">
<title>Basis&#45;&#45;Second Countable</title>
<path fill="none" stroke="#000000" d="M366.1949,-215.8314C366.1949,-205 366.1949,-191.2876 366.1949,-180.4133"/>
</g>
<!-- Paracompact -->
<g id="node8" class="node">
<title>Paracompact</title>
<ellipse fill="none" stroke="#000000" cx="557.1949" cy="-162" rx="56.59" ry="18"/>
<text text-anchor="middle" x="557.1949" y="-158.3" font-family="Times,serif" font-size="14.00" fill="#000000">Paracompact</text>
</g>
<!-- Locally Finite&#45;&#45;Paracompact -->
<g id="edge8" class="edge">
<title>Locally Finite&#45;&#45;Paracompact</title>
<path fill="none" stroke="#000000" d="M557.1949,-215.8314C557.1949,-205 557.1949,-191.2876 557.1949,-180.4133"/>
</g>
<!-- Urysohn Lemma -->
<g id="node10" class="node">
<title>Urysohn Lemma</title>
<ellipse fill="none" stroke="#000000" cx="560.1949" cy="-90" rx="71.4873" ry="18"/>
<text text-anchor="middle" x="560.1949" y="-86.3" font-family="Times,serif" font-size="14.00" fill="#000000">Urysohn Lemma</text>
</g>
<!-- Paracompact&#45;&#45;Urysohn Lemma -->
<g id="edge11" class="edge">
<title>Paracompact&#45;&#45;Urysohn Lemma</title>
<path fill="none" stroke="#000000" d="M557.952,-143.8314C558.4033,-133 558.9746,-119.2876 559.4277,-108.4133"/>
</g>
<!-- Paracompact&#45;&#45;Normal -->
<g id="edge16" class="edge">
<title>Paracompact&#45;&#45;Normal</title>
<path fill="none" stroke="#000000" d="M529.7631,-146.1993C507.9156,-133.6151 477.6154,-116.1622 456.6022,-104.0586"/>
</g>
<!-- Urysohn Lemma&#45;&#45;Partition of Unity -->
<g id="edge12" class="edge">
<title>Urysohn Lemma&#45;&#45;Partition of Unity</title>
<path fill="none" stroke="#000000" d="M530.8291,-73.4817C510.1627,-61.8569 482.6015,-46.3537 461.8673,-34.6907"/>
</g>
<!-- Normal&#45;&#45;Partition of Unity -->
<g id="edge17" class="edge">
<title>Normal&#45;&#45;Partition of Unity</title>
<path fill="none" stroke="#000000" d="M432.1949,-71.8314C432.1949,-61 432.1949,-47.2876 432.1949,-36.4133"/>
</g>
</g>
</svg>
