<?xml version="1.0" encoding="UTF-8" standalone="no"?>
<!DOCTYPE svg PUBLIC "-//W3C//DTD SVG 1.1//EN"
 "http://www.w3.org/Graphics/SVG/1.1/DTD/svg11.dtd">
<!-- Generated by graphviz version 2.40.1 (20161225.0304)
 -->
<!-- Title: G Pages: 1 -->
<svg width="581pt" height="332pt"
 viewBox="0.00 0.00 580.74 332.00" xmlns="http://www.w3.org/2000/svg" xmlns:xlink="http://www.w3.org/1999/xlink">
<g id="graph0" class="graph" transform="scale(1 1) rotate(0) translate(4 328)">
<title>G</title>
<polygon fill="#ffffff" stroke="transparent" points="-4,4 -4,-328 576.7399,-328 576.7399,4 -4,4"/>
<!-- Topological Manifold -->
<g id="node1" class="node">
<title>Topological Manifold</title>
<ellipse fill="none" stroke="#000000" cx="205.1949" cy="-234" rx="89.0842" ry="18"/>
<text text-anchor="middle" x="205.1949" y="-230.3" font-family="Times,serif" font-size="14.00" fill="#000000">Topological Manifold</text>
</g>
<!-- Hausdorff -->
<g id="node2" class="node">
<title>Hausdorff</title>
<ellipse fill="none" stroke="#000000" cx="57.1949" cy="-162" rx="46.2923" ry="18"/>
<text text-anchor="middle" x="57.1949" y="-158.3" font-family="Times,serif" font-size="14.00" fill="#000000">Hausdorff</text>
</g>
<!-- Topological Manifold&#45;&#45;Hausdorff -->
<g id="edge1" class="edge">
<title>Topological Manifold&#45;&#45;Hausdorff</title>
<path fill="none" stroke="#000000" d="M170.8688,-217.3008C145.2512,-204.8382 110.6274,-187.9942 86.3466,-176.1819"/>
</g>
<!-- Locally Euclidean -->
<g id="node3" class="node">
<title>Locally Euclidean</title>
<ellipse fill="none" stroke="#000000" cx="197.1949" cy="-162" rx="75.2868" ry="18"/>
<text text-anchor="middle" x="197.1949" y="-158.3" font-family="Times,serif" font-size="14.00" fill="#000000">Locally Euclidean</text>
</g>
<!-- Topological Manifold&#45;&#45;Locally Euclidean -->
<g id="edge2" class="edge">
<title>Topological Manifold&#45;&#45;Locally Euclidean</title>
<path fill="none" stroke="#000000" d="M203.1762,-215.8314C201.9727,-205 200.4491,-191.2876 199.2408,-180.4133"/>
</g>
<!-- Second Countable -->
<g id="node4" class="node">
<title>Second Countable</title>
<ellipse fill="none" stroke="#000000" cx="366.1949" cy="-162" rx="75.2868" ry="18"/>
<text text-anchor="middle" x="366.1949" y="-158.3" font-family="Times,serif" font-size="14.00" fill="#000000">Second Countable</text>
</g>
<!-- Topological Manifold&#45;&#45;Second Countable -->
<g id="edge3" class="edge">
<title>Topological Manifold&#45;&#45;Second Countable</title>
<path fill="none" stroke="#000000" d="M242.1316,-217.4817C268.683,-205.6078 304.2827,-189.6875 330.5372,-177.9463"/>
</g>
<!-- Convergence -->
<g id="node9" class="node">
<title>Convergence</title>
<ellipse fill="none" stroke="#000000" cx="57.1949" cy="-90" rx="57.3905" ry="18"/>
<text text-anchor="middle" x="57.1949" y="-86.3" font-family="Times,serif" font-size="14.00" fill="#000000">Convergence</text>
</g>
<!-- Hausdorff&#45;&#45;Convergence -->
<g id="edge10" class="edge">
<title>Hausdorff&#45;&#45;Convergence</title>
<path fill="none" stroke="#000000" d="M57.1949,-143.8314C57.1949,-133 57.1949,-119.2876 57.1949,-108.4133"/>
</g>
<!-- Partition of Unity -->
<g id="node11" class="node">
<title>Partition of Unity</title>
<ellipse fill="none" stroke="#000000" cx="366.1949" cy="-18" rx="73.387" ry="18"/>
<text text-anchor="middle" x="366.1949" y="-14.3" font-family="Times,serif" font-size="14.00" fill="#000000">Partition of Unity</text>
</g>
<!-- Hausdorff&#45;&#45;Partition of Unity -->
<g id="edge13" class="edge">
<title>Hausdorff&#45;&#45;Partition of Unity</title>
<path fill="none" stroke="#000000" d="M86.8231,-148.1927C144.3751,-121.3723 270.9744,-62.3746 331.99,-33.9402"/>
</g>
<!-- Second Countable&#45;&#45;Partition of Unity -->
<g id="edge14" class="edge">
<title>Second Countable&#45;&#45;Partition of Unity</title>
<path fill="none" stroke="#000000" d="M366.1949,-143.7623C366.1949,-116.0633 366.1949,-63.7005 366.1949,-36.0896"/>
</g>
<!-- Topology -->
<g id="node5" class="node">
<title>Topology</title>
<ellipse fill="none" stroke="#000000" cx="273.1949" cy="-306" rx="44.6926" ry="18"/>
<text text-anchor="middle" x="273.1949" y="-302.3" font-family="Times,serif" font-size="14.00" fill="#000000">Topology</text>
</g>
<!-- Topology&#45;&#45;Topological Manifold -->
<g id="edge4" class="edge">
<title>Topology&#45;&#45;Topological Manifold</title>
<path fill="none" stroke="#000000" d="M257.0799,-288.937C246.4758,-277.7091 232.6269,-263.0456 221.9044,-251.6924"/>
</g>
<!-- Topology&#45;&#45;Hausdorff -->
<g id="edge5" class="edge">
<title>Topology&#45;&#45;Hausdorff</title>
<path fill="none" stroke="#000000" d="M230.1507,-300.8841C193.9223,-294.6565 142.5149,-281.0975 107.1949,-252 84.156,-233.02 69.8981,-200.5032 62.7689,-180.188"/>
</g>
<!-- Basis -->
<g id="node6" class="node">
<title>Basis</title>
<ellipse fill="none" stroke="#000000" cx="358.1949" cy="-234" rx="29.795" ry="18"/>
<text text-anchor="middle" x="358.1949" y="-230.3" font-family="Times,serif" font-size="14.00" fill="#000000">Basis</text>
</g>
<!-- Topology&#45;&#45;Basis -->
<g id="edge6" class="edge">
<title>Topology&#45;&#45;Basis</title>
<path fill="none" stroke="#000000" d="M292.4827,-289.6621C306.9813,-277.381 326.6788,-260.696 340.7181,-248.8039"/>
</g>
<!-- Locally Finite -->
<g id="node7" class="node">
<title>Locally Finite</title>
<ellipse fill="none" stroke="#000000" cx="495.1949" cy="-234" rx="60.3893" ry="18"/>
<text text-anchor="middle" x="495.1949" y="-230.3" font-family="Times,serif" font-size="14.00" fill="#000000">Locally Finite</text>
</g>
<!-- Topology&#45;&#45;Locally Finite -->
<g id="edge7" class="edge">
<title>Topology&#45;&#45;Locally Finite</title>
<path fill="none" stroke="#000000" d="M308.3715,-294.5914C347.9843,-281.744 412.2759,-260.8927 454.1492,-247.3121"/>
</g>
<!-- Basis&#45;&#45;Second Countable -->
<g id="edge9" class="edge">
<title>Basis&#45;&#45;Second Countable</title>
<path fill="none" stroke="#000000" d="M360.2137,-215.8314C361.4171,-205 362.9407,-191.2876 364.149,-180.4133"/>
</g>
<!-- Paracompact -->
<g id="node8" class="node">
<title>Paracompact</title>
<ellipse fill="none" stroke="#000000" cx="516.1949" cy="-162" rx="56.59" ry="18"/>
<text text-anchor="middle" x="516.1949" y="-158.3" font-family="Times,serif" font-size="14.00" fill="#000000">Paracompact</text>
</g>
<!-- Locally Finite&#45;&#45;Paracompact -->
<g id="edge8" class="edge">
<title>Locally Finite&#45;&#45;Paracompact</title>
<path fill="none" stroke="#000000" d="M500.4941,-215.8314C503.6533,-205 507.6527,-191.2876 510.8244,-180.4133"/>
</g>
<!-- Urysohn Lemma -->
<g id="node10" class="node">
<title>Urysohn Lemma</title>
<ellipse fill="none" stroke="#000000" cx="490.1949" cy="-90" rx="71.4873" ry="18"/>
<text text-anchor="middle" x="490.1949" y="-86.3" font-family="Times,serif" font-size="14.00" fill="#000000">Urysohn Lemma</text>
</g>
<!-- Paracompact&#45;&#45;Urysohn Lemma -->
<g id="edge11" class="edge">
<title>Paracompact&#45;&#45;Urysohn Lemma</title>
<path fill="none" stroke="#000000" d="M509.634,-143.8314C505.7227,-133 500.771,-119.2876 496.8442,-108.4133"/>
</g>
<!-- Urysohn Lemma&#45;&#45;Partition of Unity -->
<g id="edge12" class="edge">
<title>Urysohn Lemma&#45;&#45;Partition of Unity</title>
<path fill="none" stroke="#000000" d="M461.7468,-73.4817C441.7263,-61.8569 415.0263,-46.3537 394.9401,-34.6907"/>
</g>
</g>
</svg>
